<svg id="Layer_1" data-name="Layer 1" xmlns="http://www.w3.org/2000/svg" viewBox="0 0 107.22 122.88"><title>analytics</title><path d="M92.36,29.38v60.2a1.88,1.88,0,0,1,0,.34c0,.65,0,1.28-.06,1.88v4.34a11.41,11.41,0,0,1-3.39,7.64,10.35,10.35,0,0,1-7.4,3.14H81a53.86,53.86,0,0,1-8.29,0H23v5.14A4.88,4.88,0,0,0,27.88,117H96.44a4.9,4.9,0,0,0,4.88-4.88V34.26a4.92,4.92,0,0,0-4.88-4.88ZM47.78,77.26l14.95.25a15.38,15.38,0,0,1-7,12.87L47.78,77.26ZM47,72.82,46.78,56V54.84l1.15.09h0a21.59,21.59,0,0,1,4.13.68,19.92,19.92,0,0,1,3.78,1.45A19.34,19.34,0,0,1,66.48,73.25l.09,1.11H65.43L48.1,73.85h-1l-.17-1ZM48.9,57l.17,14.83,15.21.43a17.44,17.44,0,0,0-9.41-13.47,22,22,0,0,0-3.34-1.28c-1-.17-1.76-.34-2.63-.51ZM42.77,75.75,51.3,90.07a17.64,17.64,0,0,1-8.53,2.22,16.54,16.54,0,1,1-.7-33.07l.7,16.53Zm.7-53.63h4.87a.4.4,0,0,1,.43.43V35.49a.4.4,0,0,1-.43.43H43.47a.4.4,0,0,1-.43-.43V22.55a.46.46,0,0,1,.43-.43Zm25.7,0H74a.4.4,0,0,1,.43.43V35.49a.4.4,0,0,1-.43.43H69.17a.4.4,0,0,1-.43-.43V22.55a.46.46,0,0,1,.43-.43ZM56.32,12.91h4.87a.4.4,0,0,1,.43.43V35.49a.4.4,0,0,1-.43.43H56.32a.4.4,0,0,1-.43-.43V13.34a.4.4,0,0,1,.43-.43Zm-38.54,3.3h4.87a.41.41,0,0,1,.43.44V35.49a.4.4,0,0,1-.43.43H17.78a.4.4,0,0,1-.43-.43V16.65c-.09-.27.17-.44.43-.44Zm12.84-3.3h4.87a.4.4,0,0,1,.43.43V35.49a.4.4,0,0,1-.43.43H30.62a.4.4,0,0,1-.43-.43V13.34a.4.4,0,0,1,.43-.43ZM10.79,0h70.7a10.72,10.72,0,0,1,7.62,3.17l.17.19a10.71,10.71,0,0,1,3,7.43V23.47h4.16a10.81,10.81,0,0,1,10.78,10.79v77.83a10.81,10.81,0,0,1-10.78,10.79H27.88a10.82,10.82,0,0,1-10.79-10.79v-5.17h-6.3a10.76,10.76,0,0,1-7.62-3.17h0A10.74,10.74,0,0,1,0,96.14V10.79A10.82,10.82,0,0,1,10.79,0Zm70.7,5.91H10.79a4.88,4.88,0,0,0-4.88,4.88V40.92H86.37V10.79a4.87,4.87,0,0,0-1.31-3.33l-.12-.12a4.9,4.9,0,0,0-3.45-1.43ZM5.91,46.83V96.14a4.86,4.86,0,0,0,1.43,3.44h0A4.87,4.87,0,0,0,10.79,101H81.12a6.11,6.11,0,0,0,3.33-1.26c1.26-1.14,1.72-3.55,1.92-7.53V46.83Z"/></svg>