<?xml version="1.0" encoding="utf-8"?><svg version="1.1" id="Layer_1" xmlns="http://www.w3.org/2000/svg" xmlns:xlink="http://www.w3.org/1999/xlink" x="0px" y="0px" viewBox="0 0 122.88 110.35" style="enable-background:new 0 0 122.88 110.35" xml:space="preserve"><g><path d="M6.32,0v6.22h12.22V0h6.32v14.88h73.15V0h6.32v6.22h12.22V0h6.32v110.35h-6.32v-7.19h-12.22v7.19h-6.32V94.79H24.87v15.56 h-6.32v-7.19H6.32v7.19H0V0H6.32L6.32,0z M73.58,60.81c0.93-0.16,1.81-0.13,2.58,0.05v-18.1l-19.16,5.5v21.02 c0.01,0.11,0.02,0.23,0.02,0.35c0,0,0,0,0,0c0,2.83-2.97,5.64-6.63,6.27c-3.66,0.63-6.63-1.15-6.63-3.98 c0-2.83,2.97-5.64,6.63-6.27c1.38-0.24,2.66-0.13,3.72,0.24l0-25.88h0.16l24.79-5.68v29.15c0.04,0.21,0.07,0.43,0.07,0.65 c0,0,0,0,0,0c0,2.36-2.48,4.71-5.54,5.24c-3.06,0.53-5.54-0.96-5.54-3.33C68.04,63.68,70.52,61.33,73.58,60.81L73.58,60.81 L73.58,60.81z M98.01,21.2H24.87v67.27h73.15V21.2L98.01,21.2z M116.56,96.84v-11.8h-12.22v11.8H116.56L116.56,96.84z M116.56,78.72v-11.8h-12.22v11.8H116.56L116.56,78.72z M116.56,60.59v-11.8h-12.22v11.8H116.56L116.56,60.59z M116.56,42.47v-11.8 h-12.22v11.8H116.56L116.56,42.47z M116.56,24.35v-11.8h-12.22v11.8H116.56L116.56,24.35z M18.54,96.84v-11.8H6.32v11.8H18.54 L18.54,96.84z M18.54,78.72v-11.8H6.32v11.8H18.54L18.54,78.72z M18.54,60.59v-11.8H6.32v11.8H18.54L18.54,60.59z M18.54,42.47 v-11.8H6.32v11.8H18.54L18.54,42.47z M18.54,24.35v-11.8H6.32v11.8H18.54L18.54,24.35z"/></g></svg>