<svg id="Layer_1" data-name="Layer 1" xmlns="http://www.w3.org/2000/svg" viewBox="0 0 108.81 122.88"><defs><style>.cls-1{fill-rule:evenodd;}</style></defs><title>music-files</title><path class="cls-1" d="M84.46,28.19a3.15,3.15,0,0,1,2.29,3v5.29H94.6a6.82,6.82,0,0,1,4.88,2,6.91,6.91,0,0,1,2,4.88V60.21h-6V43.42a1,1,0,0,0-.28-.7,1,1,0,0,0-.71-.28H86.75V60.2H80.44V35H54.21A3.17,3.17,0,0,1,51,31.83V6.29H6.32v95.48H43.76v6.31H16.37V116a1,1,0,0,0,.28.7,1,1,0,0,0,.7.28H43.74v5.93H17.39A7,7,0,0,1,10.47,116v-7.88H5.66a5.66,5.66,0,0,1-4-1.65,5.6,5.6,0,0,1-1.66-4V5.65A5.65,5.65,0,0,1,5.66,0H54.21a3.09,3.09,0,0,1,2.42,1.16l27.83,27ZM62.72,69.75H99.84a9,9,0,0,1,9,9V113.9a9,9,0,0,1-9,9H62.72a9,9,0,0,1-9-9V78.72a9,9,0,0,1,9-9ZM92.47,79.93v22.65h0a4.16,4.16,0,0,1-.15,1,4.3,4.3,0,0,1-.39.91,6.29,6.29,0,0,1-4.31,2.85,6.38,6.38,0,0,1-1,.09,4.79,4.79,0,0,1-2.64-.75,3.3,3.3,0,0,1-1.47-2.2h0a3.66,3.66,0,0,1,0-.57v0h0a3.3,3.3,0,0,1,.15-1A4.07,4.07,0,0,1,83,102a6.25,6.25,0,0,1,4.31-2.85h0l.26,0h.06l.26,0h.33V88.72L76.73,92v14.47h0a4.24,4.24,0,0,1-.18,1.13,4.51,4.51,0,0,1-.44,1,7.3,7.3,0,0,1-5,3.32,7.47,7.47,0,0,1-1.22.11,5.47,5.47,0,0,1-3-.86,3.84,3.84,0,0,1-1.67-2.5,4.74,4.74,0,0,1,0-.65v0h0a3.92,3.92,0,0,1,.17-1.13,5.6,5.6,0,0,1,.44-1,7.33,7.33,0,0,1,5-3.32h.12a4,4,0,0,1,.47-.05,3.55,3.55,0,0,1,.46,0h0a5.56,5.56,0,0,1,.71,0V84.25l20-4.32ZM20,51.62A2.05,2.05,0,0,0,18,53.76,2,2,0,0,0,20,55.89H57A2.05,2.05,0,0,0,59,53.76,2,2,0,0,0,57,51.62Zm0,15.27A2,2,0,0,0,18.06,69,2,2,0,0,0,20,71.15h23.7V66.89Zm0,15.26a2,2,0,0,0-1.92,2.13A2,2,0,0,0,20,86.41h23.7V82.15Zm0-45.79A2,2,0,0,0,18,38.49,2,2,0,0,0,20,40.62H41.89a2,2,0,0,0,1.91-2.13,2,2,0,0,0-1.91-2.13ZM20,21.1a2,2,0,0,0-1.92,2.13A2,2,0,0,0,20,25.36H32a2,2,0,0,0,1.91-2.13A2,2,0,0,0,32,21.1Zm37.37-10L76.24,28.69H57.35V11.06Z"/></svg>